<svg width="1610" height="256" viewBox="0 0 1610 256" fill="none" xmlns="http://www.w3.org/2000/svg">
<path d="M128 24C107.431 24 87.3234 30.0995 70.2207 41.5272C53.118 52.9548 39.788 69.1974 31.9165 88.2009C24.045 107.204 21.9855 128.115 25.9983 148.289C30.0112 168.463 39.9162 186.994 54.4609 201.539C69.0055 216.084 87.5366 225.989 107.711 230.002C127.885 234.015 148.796 231.955 167.799 224.083C186.803 216.212 203.045 202.882 214.473 185.779C225.9 168.677 232 148.569 232 128C231.947 100.434 220.973 74.0116 201.481 54.5193C181.988 35.0269 155.566 24.0529 128 24ZM180.3 86.1L152.3 148.3C151.434 150.1 149.941 151.523 148.1 152.3L88.7 177.8C87.7132 178.192 86.6617 178.395 85.6 178.4C83.4716 178.412 81.424 177.586 79.9 176.1C78.7705 174.971 78.0049 173.529 77.7019 171.96C77.399 170.392 77.5724 168.769 78.2 167.3L103.7 107.9C104.477 106.059 105.9 104.566 107.7 103.7L169.7 75.5C171.196 74.8421 172.857 74.6524 174.463 74.9558C176.07 75.2592 177.547 76.0415 178.7 77.2C179.858 78.3335 180.635 79.7995 180.921 81.3945C181.208 82.9894 180.991 84.6341 180.3 86.1Z" fill="#5A9358"/>
<path d="M272.091 175V81.9091H334.818V98.1364H291.773V120.318H331.591V136.545H291.773V158.773H335V175H272.091ZM369.466 134.636V175H350.102V105.182H368.557V117.5H369.375C370.92 113.439 373.511 110.227 377.148 107.864C380.784 105.47 385.193 104.273 390.375 104.273C395.223 104.273 399.451 105.333 403.057 107.455C406.663 109.576 409.466 112.606 411.466 116.545C413.466 120.455 414.466 125.121 414.466 130.545V175H395.102V134C395.133 129.727 394.042 126.394 391.83 124C389.617 121.576 386.572 120.364 382.693 120.364C380.087 120.364 377.784 120.924 375.784 122.045C373.814 123.167 372.269 124.803 371.148 126.955C370.057 129.076 369.496 131.636 369.466 134.636ZM461.545 176.364C454.364 176.364 448.182 174.909 443 172C437.848 169.061 433.879 164.909 431.091 159.545C428.303 154.152 426.909 147.773 426.909 140.409C426.909 133.227 428.303 126.924 431.091 121.5C433.879 116.076 437.803 111.848 442.864 108.818C447.955 105.788 453.924 104.273 460.773 104.273C465.379 104.273 469.667 105.015 473.636 106.5C477.636 107.955 481.121 110.152 484.091 113.091C487.091 116.03 489.424 119.727 491.091 124.182C492.758 128.606 493.591 133.788 493.591 139.727V145.045H434.636V133.045H475.364C475.364 130.258 474.758 127.788 473.545 125.636C472.333 123.485 470.652 121.803 468.5 120.591C466.379 119.348 463.909 118.727 461.091 118.727C458.152 118.727 455.545 119.409 453.273 120.773C451.03 122.106 449.273 123.909 448 126.182C446.727 128.424 446.076 130.924 446.045 133.682V145.091C446.045 148.545 446.682 151.53 447.955 154.045C449.258 156.561 451.091 158.5 453.455 159.864C455.818 161.227 458.621 161.909 461.864 161.909C464.015 161.909 465.985 161.606 467.773 161C469.561 160.394 471.091 159.485 472.364 158.273C473.636 157.061 474.606 155.576 475.273 153.818L493.182 155C492.273 159.303 490.409 163.061 487.591 166.273C484.803 169.455 481.197 171.939 476.773 173.727C472.379 175.485 467.303 176.364 461.545 176.364ZM506.227 175V105.182H525V117.364H525.727C527 113.03 529.136 109.758 532.136 107.545C535.136 105.303 538.591 104.182 542.5 104.182C543.47 104.182 544.515 104.242 545.636 104.364C546.758 104.485 547.742 104.652 548.591 104.864V122.045C547.682 121.773 546.424 121.53 544.818 121.318C543.212 121.106 541.742 121 540.409 121C537.561 121 535.015 121.621 532.773 122.864C530.561 124.076 528.803 125.773 527.5 127.955C526.227 130.136 525.591 132.652 525.591 135.5V175H506.227ZM586.807 202.636C580.534 202.636 575.155 201.773 570.67 200.045C566.216 198.348 562.67 196.03 560.034 193.091C557.398 190.152 555.686 186.848 554.898 183.182L572.807 180.773C573.352 182.167 574.216 183.47 575.398 184.682C576.58 185.894 578.14 186.864 580.08 187.591C582.049 188.348 584.443 188.727 587.261 188.727C591.473 188.727 594.943 187.697 597.67 185.636C600.428 183.606 601.807 180.197 601.807 175.409V162.636H600.989C600.14 164.576 598.867 166.409 597.17 168.136C595.473 169.864 593.292 171.273 590.625 172.364C587.958 173.455 584.777 174 581.08 174C575.837 174 571.064 172.788 566.761 170.364C562.489 167.909 559.08 164.167 556.534 159.136C554.019 154.076 552.761 147.682 552.761 139.955C552.761 132.045 554.049 125.439 556.625 120.136C559.201 114.833 562.625 110.864 566.898 108.227C571.201 105.591 575.913 104.273 581.034 104.273C584.943 104.273 588.216 104.939 590.852 106.273C593.489 107.576 595.61 109.212 597.216 111.182C598.852 113.121 600.11 115.03 600.989 116.909H601.716V105.182H620.943V175.682C620.943 181.621 619.489 186.591 616.58 190.591C613.67 194.591 609.64 197.591 604.489 199.591C599.367 201.621 593.473 202.636 586.807 202.636ZM587.216 159.455C590.337 159.455 592.973 158.682 595.125 157.136C597.307 155.561 598.973 153.318 600.125 150.409C601.307 147.47 601.898 143.955 601.898 139.864C601.898 135.773 601.322 132.227 600.17 129.227C599.019 126.197 597.352 123.848 595.17 122.182C592.989 120.515 590.337 119.682 587.216 119.682C584.034 119.682 581.352 120.545 579.17 122.273C576.989 123.97 575.337 126.333 574.216 129.364C573.095 132.394 572.534 135.894 572.534 139.864C572.534 143.894 573.095 147.379 574.216 150.318C575.367 153.227 577.019 155.485 579.17 157.091C581.352 158.667 584.034 159.455 587.216 159.455ZM636.352 175V105.182H655.716V175H636.352ZM646.08 96.1818C643.201 96.1818 640.731 95.2273 638.67 93.3182C636.64 91.3788 635.625 89.0606 635.625 86.3636C635.625 83.697 636.64 81.4091 638.67 79.5C640.731 77.5606 643.201 76.5909 646.08 76.5909C648.958 76.5909 651.413 77.5606 653.443 79.5C655.504 81.4091 656.534 83.697 656.534 86.3636C656.534 89.0606 655.504 91.3788 653.443 93.3182C651.413 95.2273 648.958 96.1818 646.08 96.1818ZM703.045 176.364C695.864 176.364 689.682 174.909 684.5 172C679.348 169.061 675.379 164.909 672.591 159.545C669.803 154.152 668.409 147.773 668.409 140.409C668.409 133.227 669.803 126.924 672.591 121.5C675.379 116.076 679.303 111.848 684.364 108.818C689.455 105.788 695.424 104.273 702.273 104.273C706.879 104.273 711.167 105.015 715.136 106.5C719.136 107.955 722.621 110.152 725.591 113.091C728.591 116.03 730.924 119.727 732.591 124.182C734.258 128.606 735.091 133.788 735.091 139.727V145.045H676.136V133.045H716.864C716.864 130.258 716.258 127.788 715.045 125.636C713.833 123.485 712.152 121.803 710 120.591C707.879 119.348 705.409 118.727 702.591 118.727C699.652 118.727 697.045 119.409 694.773 120.773C692.53 122.106 690.773 123.909 689.5 126.182C688.227 128.424 687.576 130.924 687.545 133.682V145.091C687.545 148.545 688.182 151.53 689.455 154.045C690.758 156.561 692.591 158.5 694.955 159.864C697.318 161.227 700.121 161.909 703.364 161.909C705.515 161.909 707.485 161.606 709.273 161C711.061 160.394 712.591 159.485 713.864 158.273C715.136 157.061 716.106 155.576 716.773 153.818L734.682 155C733.773 159.303 731.909 163.061 729.091 166.273C726.303 169.455 722.697 171.939 718.273 173.727C713.879 175.485 708.803 176.364 703.045 176.364ZM805.818 125.091L788.091 126.182C787.788 124.667 787.136 123.303 786.136 122.091C785.136 120.848 783.818 119.864 782.182 119.136C780.576 118.379 778.652 118 776.409 118C773.409 118 770.879 118.636 768.818 119.909C766.758 121.152 765.727 122.818 765.727 124.909C765.727 126.576 766.394 127.985 767.727 129.136C769.061 130.288 771.348 131.212 774.591 131.909L787.227 134.455C794.015 135.848 799.076 138.091 802.409 141.182C805.742 144.273 807.409 148.333 807.409 153.364C807.409 157.939 806.061 161.955 803.364 165.409C800.697 168.864 797.03 171.561 792.364 173.5C787.727 175.409 782.379 176.364 776.318 176.364C767.076 176.364 759.712 174.439 754.227 170.591C748.773 166.712 745.576 161.439 744.636 154.773L763.682 153.773C764.258 156.591 765.652 158.742 767.864 160.227C770.076 161.682 772.909 162.409 776.364 162.409C779.758 162.409 782.485 161.758 784.545 160.455C786.636 159.121 787.697 157.409 787.727 155.318C787.697 153.561 786.955 152.121 785.5 151C784.045 149.848 781.803 148.97 778.773 148.364L766.682 145.955C759.864 144.591 754.788 142.227 751.455 138.864C748.152 135.5 746.5 131.212 746.5 126C746.5 121.515 747.712 117.652 750.136 114.409C752.591 111.167 756.03 108.667 760.455 106.909C764.909 105.152 770.121 104.273 776.091 104.273C784.909 104.273 791.848 106.136 796.909 109.864C802 113.591 804.97 118.667 805.818 125.091ZM819.602 201.182V105.182H838.693V116.909H839.557C840.405 115.03 841.633 113.121 843.239 111.182C844.875 109.212 846.996 107.576 849.602 106.273C852.239 104.939 855.511 104.273 859.42 104.273C864.511 104.273 869.208 105.606 873.511 108.273C877.814 110.909 881.254 114.894 883.83 120.227C886.405 125.53 887.693 132.182 887.693 140.182C887.693 147.97 886.436 154.545 883.92 159.909C881.436 165.242 878.042 169.288 873.739 172.045C869.466 174.773 864.678 176.136 859.375 176.136C855.617 176.136 852.42 175.515 849.784 174.273C847.178 173.03 845.042 171.47 843.375 169.591C841.708 167.682 840.436 165.758 839.557 163.818H838.966V201.182H819.602ZM838.557 140.091C838.557 144.242 839.133 147.864 840.284 150.955C841.436 154.045 843.102 156.455 845.284 158.182C847.466 159.879 850.117 160.727 853.239 160.727C856.39 160.727 859.057 159.864 861.239 158.136C863.42 156.379 865.072 153.955 866.193 150.864C867.345 147.742 867.92 144.152 867.92 140.091C867.92 136.061 867.36 132.515 866.239 129.455C865.117 126.394 863.466 124 861.284 122.273C859.102 120.545 856.42 119.682 853.239 119.682C850.087 119.682 847.42 120.515 845.239 122.182C843.087 123.848 841.436 126.212 840.284 129.273C839.133 132.333 838.557 135.939 838.557 140.091ZM920.511 176.318C916.057 176.318 912.087 175.545 908.602 174C905.117 172.424 902.36 170.106 900.33 167.045C898.33 163.955 897.33 160.106 897.33 155.5C897.33 151.621 898.042 148.364 899.466 145.727C900.89 143.091 902.83 140.97 905.284 139.364C907.739 137.758 910.527 136.545 913.648 135.727C916.799 134.909 920.102 134.333 923.557 134C927.617 133.576 930.89 133.182 933.375 132.818C935.86 132.424 937.663 131.848 938.784 131.091C939.905 130.333 940.466 129.212 940.466 127.727V127.455C940.466 124.576 939.557 122.348 937.739 120.773C935.951 119.197 933.405 118.409 930.102 118.409C926.617 118.409 923.845 119.182 921.784 120.727C919.723 122.242 918.36 124.152 917.693 126.455L899.784 125C900.693 120.758 902.481 117.091 905.148 114C907.814 110.879 911.254 108.485 915.466 106.818C919.708 105.121 924.617 104.273 930.193 104.273C934.072 104.273 937.784 104.727 941.33 105.636C944.905 106.545 948.072 107.955 950.83 109.864C953.617 111.773 955.814 114.227 957.42 117.227C959.027 120.197 959.83 123.758 959.83 127.909V175H941.466V165.318H940.92C939.799 167.5 938.299 169.424 936.42 171.091C934.542 172.727 932.284 174.015 929.648 174.955C927.011 175.864 923.966 176.318 920.511 176.318ZM926.057 162.955C928.905 162.955 931.42 162.394 933.602 161.273C935.784 160.121 937.496 158.576 938.739 156.636C939.981 154.697 940.602 152.5 940.602 150.045V142.636C939.996 143.03 939.163 143.394 938.102 143.727C937.072 144.03 935.905 144.318 934.602 144.591C933.299 144.833 931.996 145.061 930.693 145.273C929.39 145.455 928.208 145.621 927.148 145.773C924.875 146.106 922.89 146.636 921.193 147.364C919.496 148.091 918.178 149.076 917.239 150.318C916.299 151.53 915.83 153.045 915.83 154.864C915.83 157.5 916.784 159.515 918.693 160.909C920.633 162.273 923.087 162.955 926.057 162.955ZM974.852 175V105.182H993.625V117.364H994.352C995.625 113.03 997.761 109.758 1000.76 107.545C1003.76 105.303 1007.22 104.182 1011.12 104.182C1012.09 104.182 1013.14 104.242 1014.26 104.364C1015.38 104.485 1016.37 104.652 1017.22 104.864V122.045C1016.31 121.773 1015.05 121.53 1013.44 121.318C1011.84 121.106 1010.37 121 1009.03 121C1006.19 121 1003.64 121.621 1001.4 122.864C999.186 124.076 997.428 125.773 996.125 127.955C994.852 130.136 994.216 132.652 994.216 135.5V175H974.852ZM1044.77 154.909L1044.82 131.682H1047.64L1070 105.182H1092.23L1062.18 140.273H1057.59L1044.77 154.909ZM1027.23 175V81.9091H1046.59V175H1027.23ZM1070.86 175L1050.32 144.591L1063.23 130.909L1093.55 175H1070.86ZM1130.4 176.364C1123.34 176.364 1117.23 174.864 1112.08 171.864C1106.96 168.833 1103 164.621 1100.22 159.227C1097.43 153.803 1096.03 147.515 1096.03 140.364C1096.03 133.152 1097.43 126.848 1100.22 121.455C1103 116.03 1106.96 111.818 1112.08 108.818C1117.23 105.788 1123.34 104.273 1130.4 104.273C1137.46 104.273 1143.55 105.788 1148.67 108.818C1153.82 111.818 1157.79 116.03 1160.58 121.455C1163.37 126.848 1164.76 133.152 1164.76 140.364C1164.76 147.515 1163.37 153.803 1160.58 159.227C1157.79 164.621 1153.82 168.833 1148.67 171.864C1143.55 174.864 1137.46 176.364 1130.4 176.364ZM1130.49 161.364C1133.7 161.364 1136.38 160.455 1138.53 158.636C1140.69 156.788 1142.31 154.273 1143.4 151.091C1144.52 147.909 1145.08 144.288 1145.08 140.227C1145.08 136.167 1144.52 132.545 1143.4 129.364C1142.31 126.182 1140.69 123.667 1138.53 121.818C1136.38 119.97 1133.7 119.045 1130.49 119.045C1127.25 119.045 1124.52 119.97 1122.31 121.818C1120.13 123.667 1118.47 126.182 1117.35 129.364C1116.26 132.545 1115.72 136.167 1115.72 140.227C1115.72 144.288 1116.26 147.909 1117.35 151.091C1118.47 154.273 1120.13 156.788 1122.31 158.636C1124.52 160.455 1127.25 161.364 1130.49 161.364ZM1177.35 175V105.182H1195.81V117.5H1196.62C1198.08 113.409 1200.5 110.182 1203.9 107.818C1207.29 105.455 1211.35 104.273 1216.08 104.273C1220.87 104.273 1224.94 105.47 1228.31 107.864C1231.67 110.227 1233.91 113.439 1235.03 117.5H1235.76C1237.19 113.5 1239.76 110.303 1243.49 107.909C1247.25 105.485 1251.69 104.273 1256.81 104.273C1263.32 104.273 1268.61 106.348 1272.67 110.5C1276.76 114.621 1278.81 120.47 1278.81 128.045V175H1259.49V131.864C1259.49 127.985 1258.46 125.076 1256.4 123.136C1254.34 121.197 1251.76 120.227 1248.67 120.227C1245.16 120.227 1242.41 121.348 1240.44 123.591C1238.47 125.803 1237.49 128.727 1237.49 132.364V175H1218.72V131.455C1218.72 128.03 1217.73 125.303 1215.76 123.273C1213.82 121.242 1211.26 120.227 1208.08 120.227C1205.93 120.227 1203.99 120.773 1202.26 121.864C1200.56 122.924 1199.22 124.424 1198.22 126.364C1197.22 128.273 1196.72 130.515 1196.72 133.091V175H1177.35ZM1294.1 201.182V105.182H1313.19V116.909H1314.06C1314.91 115.03 1316.13 113.121 1317.74 111.182C1319.38 109.212 1321.5 107.576 1324.1 106.273C1326.74 104.939 1330.01 104.273 1333.92 104.273C1339.01 104.273 1343.71 105.606 1348.01 108.273C1352.31 110.909 1355.75 114.894 1358.33 120.227C1360.91 125.53 1362.19 132.182 1362.19 140.182C1362.19 147.97 1360.94 154.545 1358.42 159.909C1355.94 165.242 1352.54 169.288 1348.24 172.045C1343.97 174.773 1339.18 176.136 1333.88 176.136C1330.12 176.136 1326.92 175.515 1324.28 174.273C1321.68 173.03 1319.54 171.47 1317.88 169.591C1316.21 167.682 1314.94 165.758 1314.06 163.818H1313.47V201.182H1294.1ZM1313.06 140.091C1313.06 144.242 1313.63 147.864 1314.78 150.955C1315.94 154.045 1317.6 156.455 1319.78 158.182C1321.97 159.879 1324.62 160.727 1327.74 160.727C1330.89 160.727 1333.56 159.864 1335.74 158.136C1337.92 156.379 1339.57 153.955 1340.69 150.864C1341.84 147.742 1342.42 144.152 1342.42 140.091C1342.42 136.061 1341.86 132.515 1340.74 129.455C1339.62 126.394 1337.97 124 1335.78 122.273C1333.6 120.545 1330.92 119.682 1327.74 119.682C1324.59 119.682 1321.92 120.515 1319.74 122.182C1317.59 123.848 1315.94 126.212 1314.78 129.273C1313.63 132.333 1313.06 135.939 1313.06 140.091ZM1395.01 176.318C1390.56 176.318 1386.59 175.545 1383.1 174C1379.62 172.424 1376.86 170.106 1374.83 167.045C1372.83 163.955 1371.83 160.106 1371.83 155.5C1371.83 151.621 1372.54 148.364 1373.97 145.727C1375.39 143.091 1377.33 140.97 1379.78 139.364C1382.24 137.758 1385.03 136.545 1388.15 135.727C1391.3 134.909 1394.6 134.333 1398.06 134C1402.12 133.576 1405.39 133.182 1407.88 132.818C1410.36 132.424 1412.16 131.848 1413.28 131.091C1414.41 130.333 1414.97 129.212 1414.97 127.727V127.455C1414.97 124.576 1414.06 122.348 1412.24 120.773C1410.45 119.197 1407.91 118.409 1404.6 118.409C1401.12 118.409 1398.34 119.182 1396.28 120.727C1394.22 122.242 1392.86 124.152 1392.19 126.455L1374.28 125C1375.19 120.758 1376.98 117.091 1379.65 114C1382.31 110.879 1385.75 108.485 1389.97 106.818C1394.21 105.121 1399.12 104.273 1404.69 104.273C1408.57 104.273 1412.28 104.727 1415.83 105.636C1419.41 106.545 1422.57 107.955 1425.33 109.864C1428.12 111.773 1430.31 114.227 1431.92 117.227C1433.53 120.197 1434.33 123.758 1434.33 127.909V175H1415.97V165.318H1415.42C1414.3 167.5 1412.8 169.424 1410.92 171.091C1409.04 172.727 1406.78 174.015 1404.15 174.955C1401.51 175.864 1398.47 176.318 1395.01 176.318ZM1400.56 162.955C1403.41 162.955 1405.92 162.394 1408.1 161.273C1410.28 160.121 1412 158.576 1413.24 156.636C1414.48 154.697 1415.1 152.5 1415.1 150.045V142.636C1414.5 143.03 1413.66 143.394 1412.6 143.727C1411.57 144.03 1410.41 144.318 1409.1 144.591C1407.8 144.833 1406.5 145.061 1405.19 145.273C1403.89 145.455 1402.71 145.621 1401.65 145.773C1399.38 146.106 1397.39 146.636 1395.69 147.364C1394 148.091 1392.68 149.076 1391.74 150.318C1390.8 151.53 1390.33 153.045 1390.33 154.864C1390.33 157.5 1391.28 159.515 1393.19 160.909C1395.13 162.273 1397.59 162.955 1400.56 162.955ZM1507.44 125.091L1489.72 126.182C1489.41 124.667 1488.76 123.303 1487.76 122.091C1486.76 120.848 1485.44 119.864 1483.81 119.136C1482.2 118.379 1480.28 118 1478.03 118C1475.03 118 1472.5 118.636 1470.44 119.909C1468.38 121.152 1467.35 122.818 1467.35 124.909C1467.35 126.576 1468.02 127.985 1469.35 129.136C1470.69 130.288 1472.97 131.212 1476.22 131.909L1488.85 134.455C1495.64 135.848 1500.7 138.091 1504.03 141.182C1507.37 144.273 1509.03 148.333 1509.03 153.364C1509.03 157.939 1507.69 161.955 1504.99 165.409C1502.32 168.864 1498.66 171.561 1493.99 173.5C1489.35 175.409 1484 176.364 1477.94 176.364C1468.7 176.364 1461.34 174.439 1455.85 170.591C1450.4 166.712 1447.2 161.439 1446.26 154.773L1465.31 153.773C1465.88 156.591 1467.28 158.742 1469.49 160.227C1471.7 161.682 1474.53 162.409 1477.99 162.409C1481.38 162.409 1484.11 161.758 1486.17 160.455C1488.26 159.121 1489.32 157.409 1489.35 155.318C1489.32 153.561 1488.58 152.121 1487.12 151C1485.67 149.848 1483.43 148.97 1480.4 148.364L1468.31 145.955C1461.49 144.591 1456.41 142.227 1453.08 138.864C1449.78 135.5 1448.12 131.212 1448.12 126C1448.12 121.515 1449.34 117.652 1451.76 114.409C1454.22 111.167 1457.66 108.667 1462.08 106.909C1466.53 105.152 1471.75 104.273 1477.72 104.273C1486.53 104.273 1493.47 106.136 1498.53 109.864C1503.63 113.591 1506.59 118.667 1507.44 125.091ZM1579.32 125.091L1561.59 126.182C1561.29 124.667 1560.64 123.303 1559.64 122.091C1558.64 120.848 1557.32 119.864 1555.68 119.136C1554.08 118.379 1552.15 118 1549.91 118C1546.91 118 1544.38 118.636 1542.32 119.909C1540.26 121.152 1539.23 122.818 1539.23 124.909C1539.23 126.576 1539.89 127.985 1541.23 129.136C1542.56 130.288 1544.85 131.212 1548.09 131.909L1560.73 134.455C1567.52 135.848 1572.58 138.091 1575.91 141.182C1579.24 144.273 1580.91 148.333 1580.91 153.364C1580.91 157.939 1579.56 161.955 1576.86 165.409C1574.2 168.864 1570.53 171.561 1565.86 173.5C1561.23 175.409 1555.88 176.364 1549.82 176.364C1540.58 176.364 1533.21 174.439 1527.73 170.591C1522.27 166.712 1519.08 161.439 1518.14 154.773L1537.18 153.773C1537.76 156.591 1539.15 158.742 1541.36 160.227C1543.58 161.682 1546.41 162.409 1549.86 162.409C1553.26 162.409 1555.98 161.758 1558.05 160.455C1560.14 159.121 1561.2 157.409 1561.23 155.318C1561.2 153.561 1560.45 152.121 1559 151C1557.55 149.848 1555.3 148.97 1552.27 148.364L1540.18 145.955C1533.36 144.591 1528.29 142.227 1524.95 138.864C1521.65 135.5 1520 131.212 1520 126C1520 121.515 1521.21 117.652 1523.64 114.409C1526.09 111.167 1529.53 108.667 1533.95 106.909C1538.41 105.152 1543.62 104.273 1549.59 104.273C1558.41 104.273 1565.35 106.136 1570.41 109.864C1575.5 113.591 1578.47 118.667 1579.32 125.091Z" fill="black"/>
</svg>
