<svg xmlns="http://www.w3.org/2000/svg" viewBox="0 0 400 47"><path fill="currentColor" fill-rule="evenodd" d="M65.527 21.975v-2.553c0-.504-.314-.568-.567-.568h-7.94c-.126 0-.315-.095-.315-.378v-4.6c0-.316.189-.38.315-.38h5.704c.252 0 .567-.062.567-.566v-2.552c0-.506-.315-.568-.567-.568H57.02c-.126 0-.315-.095-.315-.38V5.588c0-.315.189-.379.315-.379h7.311c.253 0 .567-.062.567-.566V2.09c0-.505-.314-.568-.567-.568h-12.1c-.253 0-.569.063-.569.568v19.885c0 .504.316.567.568.567h12.73c.253 0 .567-.063.567-.567zm17.515 0V12.93c0-2.583-.156-3.97-1.196-5.106-1.01-1.103-2.616-1.575-4.413-1.575-.977 0-2.238.251-3.15.63-.284.126-.757.285-1.135.285-.316 0-.347-.096-.347-.222 0-.22-.064-.41-.441-.41h-3.562c-.252 0-.566.063-.566.568v14.875c0 .504.314.567.566.567h3.593c.252 0 .568-.063.568-.567V11.543c0-.79.314-1.228.944-1.513.474-.22 1.135-.315 1.67-.315 1.01 0 1.734.284 2.207.883.41.535.536 1.323.536 2.585v8.792c0 .504.315.567.567.567h3.593c.252 0 .566-.063.566-.567zm18.29-7.092v-.756c0-3.309-.943-7.91-7.689-7.91-4.506 0-7.941 2.46-7.941 8.477 0 6.367 4.348 8.131 8.95 8.131 2.332 0 4.57-.377 5.356-.976.316-.22.347-.412.347-.82v-1.985c0-.253-.094-.505-.44-.505-.22 0-.285.064-.474.158-.598.314-2.11.977-4.19.977-2.773 0-4.601-1.103-4.601-3.782 0-.314.188-.442.472-.442h9.644c.252 0 .567-.063.567-.567zm-4.726-2.741c0 .345-.063.409-.378.409h-5.295c-.314 0-.377-.127-.377-.314 0-1.859 1.102-3.09 2.961-3.09 1.356 0 3.089.568 3.089 2.995zm18.007-2.207V7.321c0-.536-.19-1.04-1.575-1.04-2.365 0-3.058 1.196-3.972 1.196-.189 0-.346-.124-.346-.282v-.253c0-.22-.064-.41-.441-.41h-3.498c-.253 0-.568.063-.568.568v14.875c0 .504.315.567.568.567h3.592c.252 0 .568-.063.568-.567v-9.328c0-1.167.314-2.49 2.835-2.49 1.67 0 1.923.251 2.396.251.315 0 .44-.19.44-.473zm17.304 11.662V7.1c0-.568-.41-.568-.567-.568h-3.5c-.408 0-.44.19-.44.41 0 .126 0 .222-.315.222-.725 0-1.512-.883-3.782-.883-4.538 0-7.563 2.805-7.563 8.32 0 4.979 2.648 7.94 7.28 7.94 2.3 0 3.466-.977 3.876-.977.19 0 .284.158.284.411v.473c0 1.008-.158 1.953-1.166 2.615-.977.63-2.426.787-3.594.787-2.772 0-4.347-.819-5.041-1.196-.189-.096-.283-.158-.505-.158-.283 0-.41.218-.41.504v2.111c0 .379 0 .569.316.788.725.536 3.72 1.199 6.145 1.199 3.75 0 6.964-.915 8.288-3.468.536-1.04.694-2.394.694-4.033zm-4.727-4.411c0 1.165-.41 1.448-1.103 1.762-.44.19-.945.253-1.45.253-2.868 0-3.939-1.733-3.939-4.664 0-4.57 2.52-4.948 3.939-4.948.505 0 1.01.063 1.45.252.693.284 1.103.6 1.103 1.45v5.895zm13.225-14.844c0-1.356-.945-2.112-2.646-2.112-1.67 0-2.647.756-2.647 2.079 0 1.356.944 2.112 2.647 2.112 1.67 0 2.646-.756 2.646-2.079zm-.283 19.633V7.132c0-.505-.315-.6-.567-.6h-3.593c-.251 0-.566.063-.566.568v14.875c0 .504.315.567.566.567h3.593c.252 0 .567-.063.567-.567zm18.314-7.092v-.756c0-3.309-.947-7.91-7.69-7.91-4.507 0-7.942 2.46-7.942 8.477 0 6.367 4.35 8.131 8.95 8.131 2.332 0 4.57-.377 5.358-.976.314-.22.347-.412.347-.82v-1.985c0-.253-.095-.505-.441-.505-.223 0-.286.064-.475.158-.597.314-2.11.977-4.191.977-2.773 0-4.601-1.103-4.601-3.782 0-.314.19-.442.474-.442h9.642c.252 0 .569-.063.569-.567zm-4.728-2.741c0 .345-.063.409-.378.409h-5.294c-.315 0-.38-.127-.38-.314 0-1.859 1.104-3.09 2.963-3.09 1.356 0 3.089.568 3.089 2.995zm22.214 2.741v-.756c0-3.309-.946-7.91-7.69-7.91-4.506 0-7.941 2.46-7.941 8.477 0 6.367 4.349 8.131 8.95 8.131 2.332 0 4.57-.377 5.357-.976.316-.22.347-.412.347-.82v-1.985c0-.253-.094-.505-.441-.505-.22 0-.283.064-.472.158-.6.314-2.113.977-4.192.977-2.774 0-4.6-1.103-4.6-3.782 0-.314.188-.442.471-.442h9.644c.25 0 .567-.063.567-.567zm-4.727-2.741c0 .345-.063.409-.378.409h-5.295c-.315 0-.378-.127-.378-.314 0-1.859 1.103-3.09 2.962-3.09 1.355 0 3.09.568 3.09 2.995zm16.12-3.025V7.1c0-.505-.316-.568-.568-.568h-2.3c-.128 0-.284-.093-.284-.378v-.41c0-.44.031-1.323.094-1.543.19-.694.598-.915 1.325-.915.691 0 .944.316 1.323.316.22 0 .41-.127.41-.505V1.175c0-.756-1.513-1.133-3.184-1.133-1.324 0-3.497.313-4.38 2.646-.22.567-.316 1.197-.316 2.678v.788c0 .285-.157.378-.283.378h-1.356c-.252 0-.567.063-.567.568v2.017c0 .504.315.566.567.566h1.356c.126 0 .283.095.283.378v11.914c0 .504.316.567.568.567h3.592c.252 0 .568-.063.568-.567V10.061c0-.283.156-.378.284-.378h2.3c.252 0 .567-.062.567-.566zm11.367 0V7.1c0-.505-.316-.568-.569-.568h-2.3c-.126 0-.284-.093-.284-.378v-.41c0-.44.033-1.323.095-1.543.188-.694.599-.915 1.323-.915.694 0 .947.316 1.324.316.221 0 .411-.127.411-.505V1.175c0-.756-1.512-1.133-3.183-1.133-1.325 0-3.498.313-4.381 2.646-.221.567-.316 1.197-.316 2.678v.788c0 .285-.157.378-.283.378h-1.355c-.253 0-.568.063-.568.568v2.017c0 .504.315.566.568.566h1.355c.126 0 .283.095.283.378v11.914c0 .504.316.567.567.567h3.594c.251 0 .566-.063.566-.567V10.061c0-.283.158-.378.283-.378h2.301c.253 0 .57-.062.57-.566zm7.247-6.775c0-1.356-.945-2.112-2.647-2.112-1.67 0-2.647.756-2.647 2.079 0 1.356.944 2.112 2.647 2.112 1.67 0 2.647-.756 2.647-2.079zm-.284 19.633V7.132c0-.505-.314-.6-.567-.6h-3.592c-.253 0-.568.063-.568.568v14.875c0 .504.315.567.568.567h3.592c.253 0 .567-.063.567-.567zm15.748 0v-2.05c0-.503-.316-.566-.569-.566h-6.49c-.284 0-.41-.032-.41-.221 0-.157.061-.22.156-.347l6.683-8.919c.283-.378.347-.63.347-1.102V7.1c0-.505-.316-.568-.569-.568h-11.47c-.252 0-.567.063-.567.568v2.017c0 .504.315.566.566.566h5.704c.283 0 .41.032.41.222 0 .156-.064.22-.157.347l-6.493 8.666c-.283.377-.346.693-.346 1.103v1.954c0 .504.316.567.568.567h12.068c.253 0 .57-.063.57-.567zm7.641-19.633c0-1.356-.945-2.112-2.647-2.112-1.67 0-2.647.756-2.647 2.079 0 1.356.946 2.112 2.647 2.112 1.669 0 2.647-.756 2.647-2.079zm-.284 19.633V7.132c0-.505-.314-.6-.566-.6H224.6c-.252 0-.566.063-.566.568v14.875c0 .504.314.567.566.567h3.594c.252 0 .566-.063.566-.567zm18.314-7.092v-.756c0-3.309-.946-7.91-7.691-7.91-4.506 0-7.94 2.46-7.94 8.477 0 6.367 4.349 8.131 8.949 8.131 2.332 0 4.57-.377 5.358-.976.314-.22.347-.412.347-.82v-1.985c0-.253-.095-.505-.44-.505-.222 0-.285.064-.475.158-.598.314-2.11.977-4.191.977-2.772 0-4.6-1.103-4.6-3.782 0-.314.188-.442.473-.442h9.64c.254 0 .57-.063.57-.567zm-4.729-2.741c0 .345-.062.409-.378.409h-5.293c-.316 0-.379-.127-.379-.314 0-1.859 1.105-3.09 2.963-3.09 1.355 0 3.087.568 3.087 2.995zm22.42 9.833V12.93c0-2.583-.157-3.97-1.197-5.106-1.01-1.103-2.617-1.575-4.413-1.575-.977 0-2.237.251-3.15.63-.284.126-.756.285-1.134.285-.316 0-.348-.096-.348-.222 0-.22-.063-.41-.441-.41h-3.561c-.252 0-.567.063-.567.568v14.875c0 .504.315.567.567.567h3.591c.253 0 .569-.063.569-.567V11.543c0-.79.315-1.228.945-1.513.473-.22 1.135-.315 1.67-.315 1.01 0 1.734.284 2.207.883.41.535.534 1.323.534 2.585v8.792c0 .504.316.567.568.567h3.594c.251 0 .565-.063.565-.567zm15.615 0v-2.05c0-.503-.315-.566-.568-.566h-6.491c-.284 0-.41-.032-.41-.221 0-.157.062-.22.157-.347l6.682-8.919c.283-.378.345-.63.345-1.102V7.1c0-.505-.314-.568-.566-.568h-11.471c-.253 0-.567.063-.567.568v2.017c0 .504.314.566.567.566h5.704c.283 0 .41.032.41.222 0 .156-.064.22-.158.347l-6.492 8.666c-.283.377-.346.693-.346 1.103v1.954c0 .504.315.567.566.567h12.07c.253 0 .568-.063.568-.567zm15.373 0v-1.134c0-.506-.316-.57-.569-.57h-8.318c-.127 0-.316-.093-.316-.377v-6.996c0-.314.19-.377.316-.377h6.081c.252 0 .566-.065.566-.568v-1.135c0-.503-.314-.566-.566-.566h-6.081c-.127 0-.316-.095-.316-.38V4.17c0-.315.19-.378.316-.378h7.689c.251 0 .566-.064.566-.567V2.09c0-.505-.315-.568-.566-.568H284.06c-.253 0-.568.063-.568.568v19.885c0 .504.315.567.568.567h11.123c.253 0 .569-.063.569-.567zm15.273.126c0-.222-.095-.317-.22-.504l-4.885-7.123c-.095-.158-.156-.284-.156-.409 0-.126.03-.22.124-.346l4.065-6.02c.127-.19.22-.315.22-.535 0-.254-.157-.411-.535-.411h-1.513c-.441 0-.536.22-.63.379l-2.836 4.6c-.095.156-.188.284-.315.284-.158 0-.22-.157-.346-.315l-3.12-4.57c-.126-.157-.22-.378-.662-.378h-2.048c-.378 0-.536.157-.536.41 0 .22.094.347.221.536l4.317 6.303c.095.156.22.314.22.472 0 .126-.062.283-.22.505l-4.475 6.618c-.125.187-.22.316-.22.534 0 .253.157.41.536.41h1.574c.441 0 .536-.221.631-.378l3.277-5.325c.095-.157.19-.283.315-.283.158 0 .22.156.348.313l3.623 5.295c.127.157.22.379.663.379h2.047c.378 0 .536-.19.536-.441zm16.72-7.658c0-4.918-2.645-7.943-7.278-7.943-2.394 0-3.371.884-4.065.884-.316 0-.316-.095-.316-.22 0-.222-.063-.411-.44-.411h-1.703c-.251 0-.566.063-.566.568V28.5c0 .503.315.566.566.566h1.797c.251 0 .567-.063.567-.566v-6.18c0-.25.062-.406.283-.406.315 0 1.483.882 3.688.882 4.6 0 7.467-3.12 7.467-8.352zm-3.086.063c0 5.515-3.31 6.082-5.107 6.082-.63 0-1.354-.095-1.92-.316-.884-.346-1.325-.725-1.325-1.733v-7.785c0-1.008.441-1.385 1.325-1.732.566-.22 1.29-.316 1.92-.316 3.689 0 5.107 2.27 5.107 5.8zm19.54-.095v-.755c0-2.523-.945-7.156-6.775-7.156-4.885 0-7.28 3.847-7.28 8.321 0 6.176 3.907 7.974 7.973 7.974 1.922 0 4.16-.347 4.948-.946.314-.22.347-.412.347-.82v-1.072c0-.25-.095-.504-.44-.504-.222 0-.316.064-.506.158a8.976 8.976 0 0 1-4.034.977c-2.835 0-5.2-1.512-5.2-5.168 0-.316.19-.44.474-.44h9.926c.252 0 .567-.065.567-.57zm-3.056-1.955c0 .348-.095.41-.378.41h-7.155c-.315 0-.378-.126-.378-.315 0-1.039.694-3.907 4.097-3.907 1.64 0 3.814.85 3.814 3.812zm14.726-3.654v-1.26c0-.568 0-1.042-1.387-1.042-1.986 0-3.057 1.2-3.97 1.2-.189 0-.347-.128-.347-.284v-.252c0-.222-.064-.411-.44-.411h-1.703c-.251 0-.568.063-.568.568v14.654c0 .504.317.567.568.567h1.797c.251 0 .566-.063.566-.567V11.512c0-1.165.347-2.49 2.742-2.49 1.67 0 1.828.252 2.301.252.316 0 .441-.188.441-.472zm12.375 12.858v-1.199c0-.379-.189-.504-.442-.504-.409 0-.851.6-2.394.6-1.166 0-1.702-.475-1.953-1.104-.19-.442-.222-.85-.222-1.827V9.305c0-.283.157-.377.285-.377h4.16c.251 0 .566-.063.566-.568V7.32c0-.505-.315-.568-.566-.568h-4.16c-.128 0-.285-.095-.285-.378V3.128c0-.503-.314-.566-.567-.566h-1.796c-.252 0-.567.063-.567.566v3.247c0 .283-.158.378-.284.378h-1.67c-.252 0-.568.063-.568.568V8.36c0 .505.316.568.569.568h1.669c.126 0 .284.094.284.377v8.32c0 1.861.22 3.34 1.291 4.224.882.724 2.175.946 3.309.946 1.135 0 3.341-.283 3.341-1.135zm15.517-7.25v-.754c0-2.523-.945-7.156-6.775-7.156-4.885 0-7.28 3.847-7.28 8.321 0 6.176 3.908 7.974 7.973 7.974 1.922 0 4.16-.347 4.948-.946.315-.22.347-.412.347-.82v-1.072c0-.25-.095-.504-.442-.504-.22 0-.314.064-.503.158a8.978 8.978 0 0 1-4.035.977c-2.836 0-5.199-1.512-5.199-5.168 0-.316.188-.44.473-.44h9.927c.25 0 .566-.065.566-.57zm-3.055-1.954c0 .348-.095.41-.38.41h-7.153c-.316 0-.378-.126-.378-.315 0-1.039.693-3.907 4.097-3.907 1.638 0 3.814.85 3.814 3.812zm19.263 9.519v-8.792c0-2.585-.157-3.972-1.197-5.107-.977-1.102-2.616-1.576-4.412-1.576-.977 0-2.239.221-3.153.6-.282.127-.787.284-1.164.284-.316 0-.316-.095-.316-.22 0-.222-.062-.411-.441-.411h-1.702c-.253 0-.566.063-.566.568v14.654c0 .504.313.567.566.567h1.795c.253 0 .57-.063.57-.567V10.694c0-.916.408-1.294 1.229-1.608.629-.252 1.48-.41 2.205-.41 1.323 0 2.332.346 2.963 1.04.536.662.69 1.543.69 3.024v9.235c0 .504.317.567.57.567h1.795c.253 0 .568-.063.568-.567zM56.063 33.2v-.575c0-.271-.348-.438-1.12-.438-.545 0-1 .092-1.423.438-.65.53-.65 1.362-.65 1.833v.682c0 .136-.075.18-.136.18h-.802c-.122 0-.274.032-.274.273v.5c0 .241.152.27.274.27h.802c.06 0 .136.045.136.183v6.085c0 .242.152.274.273.274h.862c.12 0 .271-.032.271-.274v-6.085c0-.138.077-.183.136-.183H55.7c.12 0 .272-.029.272-.27v-.5c0-.241-.152-.272-.272-.272h-1.287c-.06 0-.136-.045-.136-.181v-.697c0-.501-.016-1.182.863-1.182.439 0 .544.18.727.18.136 0 .197-.06.197-.241zm7.69 9.433v-7.04c0-.241-.151-.272-.271-.272h-.862c-.122 0-.272.03-.272.272v5.421c0 .439-.198.62-.59.771a3.13 3.13 0 0 1-1.076.198c-.637 0-1.121-.152-1.425-.485-.258-.318-.317-.741-.317-1.452v-4.453c0-.241-.152-.272-.274-.272h-.861c-.12 0-.272.03-.272.272v4.24c0 1.241.06 1.907.56 2.452.468.529 1.256.74 2.119.74.47 0 1.09-.107 1.53-.287.137-.06.378-.137.56-.137.15 0 .15.046.15.106 0 .105.031.198.213.198h.817c.12 0 .271-.032.271-.274v.002zM62.8 33.55c0-.53-.287-.743-.77-.743-.5 0-.802.212-.802.726 0 .53.288.743.771.743.5 0 .801-.213.801-.726zm-2.664 0c0-.53-.287-.743-.771-.743-.5 0-.8.212-.8.726 0 .53.287.743.77.743.498 0 .801-.213.801-.726zm10.295 2.754v-.606c0-.272 0-.498-.666-.498-.954 0-1.469.574-1.907.574-.092 0-.167-.06-.167-.137v-.12c0-.106-.03-.196-.211-.196h-.817c-.122 0-.273.03-.273.272v7.038c0 .242.151.274.273.274h.861c.121 0 .273-.032.273-.274v-5.025c0-.56.167-1.198 1.317-1.198.802 0 .879.122 1.105.122.152 0 .212-.09.212-.226zm10.128-2.679v-.545c0-.243-.152-.273-.273-.273h-5.04c-.12 0-.272.03-.272.273v9.551c0 .242.151.274.272.274h.923c.121 0 .272-.032.272-.274v-4.36c0-.152.091-.182.152-.182h2.921c.121 0 .272-.029.272-.27v-.546c0-.242-.15-.27-.272-.27h-2.921c-.06 0-.152-.046-.152-.183v-2.742c0-.152.091-.182.152-.182h3.693c.121 0 .273-.03.273-.271zm8.417 5.465c0-2.348-1.255-3.89-3.632-3.89-2.469 0-3.648 1.663-3.648 3.935 0 2.348 1.255 3.89 3.633 3.89 2.468 0 3.647-1.664 3.647-3.935zm-1.481-.03c0 1.513-.364 2.923-2.151 2.923-1.773 0-2.167-1.334-2.167-2.817 0-1.514.365-2.923 2.152-2.923 1.773 0 2.166 1.332 2.166 2.817zm-.123-5.51c0-.53-.288-.743-.771-.743-.5 0-.802.212-.802.726 0 .53.288.743.772.743.497 0 .8-.213.8-.726zm-2.664 0c0-.53-.288-.743-.772-.743-.499 0-.803.212-.803.726 0 .53.288.743.772.743.5 0 .803-.213.803-.726zm10.46 2.754v-.606c0-.272 0-.498-.665-.498-.954 0-1.469.574-1.91.574-.09 0-.165-.06-.165-.137v-.12c0-.106-.03-.196-.212-.196H91.4c-.12 0-.272.03-.272.272v7.038c0 .242.151.274.272.274h.861c.123 0 .274-.032.274-.274v-5.025c0-.56.165-1.198 1.316-1.198.803 0 .879.122 1.106.122.151 0 .21-.09.21-.226zm7.964 6.329v-10.05c0-.244-.151-.274-.273-.274h-.862c-.12 0-.272.03-.272.273v2.844c0 .12-.03.198-.135.198-.138 0-.652-.424-1.728-.424-2.18 0-3.633 1.406-3.633 4.011 0 2.362 1.27 3.814 3.497 3.814 1.15 0 1.62-.424 1.954-.424.152 0 .152.046.152.106 0 .105.03.198.21.198h.817c.122 0 .273-.032.273-.274v.002zm-1.407-1.652c0 .485-.212.667-.636.833-.272.109-.621.154-.924.154-1.77 0-2.454-1.091-2.454-2.787 0-2.651 1.59-2.924 2.454-2.924.303 0 .652.045.924.151.424.167.636.35.636.835v3.738zM112.032 39v-.364c0-1.21-.452-3.435-3.254-3.435-2.347 0-3.497 1.845-3.497 3.995 0 2.968 1.877 3.83 3.831 3.83.924 0 1.998-.166 2.375-.453.152-.106.167-.196.167-.394v-.514c0-.12-.045-.242-.212-.242-.105 0-.15.03-.242.076a4.296 4.296 0 0 1-1.937.47c-1.364 0-2.5-.728-2.5-2.486 0-.152.092-.21.228-.21h4.77c.12 0 .27-.032.27-.273zm-1.466-.938c0 .167-.045.197-.183.197h-3.437c-.152 0-.183-.06-.183-.151 0-.5.334-1.88 1.97-1.88.787 0 1.833.41 1.833 1.834zm7.658-1.757v-.606c0-.272 0-.498-.667-.498-.954 0-1.467.574-1.907.574-.091 0-.165-.06-.165-.137v-.12c0-.106-.031-.196-.213-.196h-.817c-.12 0-.271.03-.271.272v7.038c0 .242.151.274.271.274h.863c.121 0 .27-.032.27-.274v-5.025c0-.56.168-1.198 1.318-1.198.803 0 .88.122 1.105.122.152 0 .213-.09.213-.226zm8.448 2.71c0-2.362-1.27-3.814-3.496-3.814-1.152 0-1.622.424-1.955.424-.15 0-.15-.046-.15-.107 0-.104-.03-.196-.213-.196h-.816c-.12 0-.272.03-.272.272v10.172c0 .242.151.272.272.272h.862c.121 0 .272-.03.272-.272v-2.967c0-.12.03-.197.136-.197.151 0 .712.424 1.773.424 2.212 0 3.587-1.496 3.587-4.011zm-1.481.033c0 2.649-1.591 2.921-2.455 2.921-.303 0-.651-.045-.924-.15-.423-.168-.636-.35-.636-.835v-3.739c0-.484.213-.666.636-.833.273-.109.62-.154.924-.154 1.773 0 2.455 1.092 2.455 2.787v.003zm7.672-2.743v-.606c0-.272 0-.498-.666-.498-.954 0-1.468.574-1.907.574-.091 0-.167-.06-.167-.137v-.12c0-.106-.03-.196-.211-.196h-.817c-.121 0-.271.03-.271.272v7.038c0 .242.15.274.271.274h.862c.12 0 .272-.032.272-.274v-5.025c0-.56.167-1.198 1.317-1.198.802 0 .879.122 1.105.122.152 0 .212-.09.212-.226zm8.343 2.786c0-2.348-1.255-3.89-3.633-3.89-2.469 0-3.648 1.663-3.648 3.935 0 2.348 1.255 3.89 3.632 3.89 2.469 0 3.65-1.664 3.65-3.935zm-1.482-.03c0 1.513-.364 2.923-2.151 2.923-1.772 0-2.165-1.334-2.165-2.817 0-1.514.363-2.923 2.15-2.923 1.772 0 2.166 1.332 2.166 2.817zm10.125 3.738v-7.205c0-.272-.197-.272-.272-.272h-.816c-.196 0-.21.092-.21.196 0 .061 0 .107-.168.107-.333 0-.727-.424-1.802-.424-2.182 0-3.632 1.346-3.632 3.95 0 2.363 1.269 3.755 3.496 3.755 1.105 0 1.68-.47 1.862-.47.106 0 .137.077.137.196v.5c0 .53-.06 1.091-.53 1.409-.47.318-1.166.425-1.727.425-1.332 0-2.09-.393-2.422-.576-.09-.045-.138-.076-.242-.076-.136 0-.197.107-.197.243v.544c0 .181 0 .272.152.379.256.18 1.36.558 2.604.558 1.696 0 2.997-.437 3.511-1.572.182-.409.256-.88.256-1.667zm-1.405-1.937c0 .485-.213.668-.636.835-.274.106-.62.15-.925.15-1.77 0-2.453-1.03-2.453-2.726 0-2.65 1.59-2.863 2.453-2.863.304 0 .651.045.925.151.423.167.636.35.636.835v3.618zm8.279-4.557v-.606c0-.272 0-.498-.666-.498-.954 0-1.47.574-1.907.574-.092 0-.167-.06-.167-.137v-.12c0-.106-.03-.196-.211-.196h-.817c-.122 0-.272.03-.272.272v7.038c0 .242.15.274.272.274h.862c.12 0 .272-.032.272-.274v-5.025c0-.56.167-1.198 1.317-1.198.802 0 .878.122 1.104.122.152 0 .213-.09.213-.226zm7.1 6.329v-4.8c0-1.135-.105-1.605-.514-2.014-.227-.227-.725-.619-2.165-.619-1.514 0-2.437.378-2.648.53-.152.105-.152.196-.152.376v.56c0 .136.061.243.197.243.106 0 .151-.03.242-.076.332-.181.968-.56 2.225-.56 1.304 0 1.41.515 1.41 1.015v.241c0 .303-.183.396-.44.47l-1.773.546c-1.392.439-2.39.923-2.39 2.392 0 1.046.484 2.088 2.527 2.088 1.152 0 1.68-.424 2.03-.424.152 0 .152.046.152.106 0 .105.03.198.21.198h.817c.122 0 .272-.032.272-.274v.002zm-1.405-1.667c0 .409-.061.576-.44.757-.379.184-.864.245-1.287.245-.773 0-1.395-.257-1.395-1.122 0-.983.728-1.166 1.546-1.438l1.212-.41c.136-.045.136-.06.242-.06.09 0 .122.046.122.152v1.876zm14.698 1.665v-4.223c0-1.241-.077-1.909-.575-2.452-.468-.53-1.09-.756-1.953-.756-1.682 0-2.136.665-2.574.665h-.09c-.318 0-.575-.665-2.045-.665-.575 0-1.044.106-1.484.288a1.584 1.584 0 0 1-.559.136c-.152 0-.152-.046-.152-.107 0-.106-.03-.196-.212-.196h-.816c-.12 0-.272.03-.272.272v7.038c0 .242.151.274.272.274h.861c.122 0 .274-.032.274-.274v-5.419c0-.439.196-.62.59-.771a2.59 2.59 0 0 1 .984-.198c.637 0 1.046.152 1.348.484.258.318.334.713.334 1.423v4.481c0 .242.15.274.272.274h.862c.12 0 .271-.032.271-.274v-5.42c0-.438.197-.62.592-.77.302-.124.636-.198.984-.198.635 0 1.046.152 1.348.484.258.318.333.713.333 1.423v4.481c0 .242.151.274.274.274h.861c.12 0 .272-.032.272-.274zm13.292 0v-4.223c0-1.241-.076-1.909-.576-2.452-.467-.53-1.087-.756-1.952-.756-1.68 0-2.136.665-2.574.665h-.09c-.318 0-.575-.665-2.043-.665-.576 0-1.045.106-1.486.288a1.59 1.59 0 0 1-.56.136c-.152 0-.152-.046-.152-.107 0-.106-.03-.196-.21-.196h-.817c-.122 0-.273.03-.273.272v7.038c0 .242.151.274.273.274h.862c.12 0 .272-.032.272-.274v-5.419c0-.439.196-.62.59-.771.304-.124.636-.198.985-.198.636 0 1.045.152 1.35.484.256.318.33.713.33 1.423v4.481c0 .242.153.274.272.274h.863c.122 0 .272-.032.272-.274v-5.42c0-.438.198-.62.59-.77.304-.124.638-.198.986-.198.636 0 1.045.152 1.349.484.256.318.333.713.333 1.423v4.481c0 .242.15.274.272.274h.862c.12 0 .272-.032.272-.274zM199.234 39v-.364c0-1.21-.454-3.435-3.254-3.435-2.347 0-3.498 1.845-3.498 3.995 0 2.968 1.877 3.83 3.83 3.83.925 0 1.998-.166 2.379-.453.148-.106.165-.196.165-.394v-.514c0-.12-.045-.242-.21-.242-.107 0-.153.03-.244.076a4.304 4.304 0 0 1-1.938.47c-1.362 0-2.498-.728-2.498-2.486 0-.152.09-.21.226-.21h4.77c.12 0 .272-.032.272-.273zm-1.467-.938c0 .167-.045.197-.182.197h-3.439c-.15 0-.18-.06-.18-.151 0-.5.332-1.88 1.967-1.88.789 0 1.834.41 1.834 1.834zm12.987 4.572v-10.05c0-.244-.15-.274-.273-.274h-.861c-.12 0-.272.03-.272.273v2.844c0 .12-.029.198-.135.198-.138 0-.652-.424-1.728-.424-2.181 0-3.632 1.406-3.632 4.011 0 2.362 1.27 3.814 3.496 3.814 1.151 0 1.62-.424 1.953-.424.152 0 .152.046.152.106 0 .105.03.198.211.198h.816c.123 0 .273-.032.273-.274v.002zm-1.406-1.652c0 .485-.213.667-.637.833-.272.109-.62.154-.924.154-1.771 0-2.453-1.091-2.453-2.787 0-2.651 1.59-2.924 2.453-2.924.305 0 .652.045.924.151.424.167.637.35.637.835v3.738zM219.655 39v-.364c0-1.21-.452-3.435-3.253-3.435-2.347 0-3.496 1.845-3.496 3.995 0 2.968 1.876 3.83 3.829 3.83.924 0 1.998-.166 2.377-.453.15-.106.165-.196.165-.394v-.514c0-.12-.044-.242-.212-.242-.103 0-.149.03-.24.076a4.307 4.307 0 0 1-1.938.47c-1.362 0-2.498-.728-2.498-2.486 0-.152.09-.21.226-.21h4.769c.121 0 .271-.032.271-.273zm-1.465-.938c0 .167-.046.197-.182.197h-3.439c-.152 0-.18-.06-.18-.151 0-.5.332-1.88 1.967-1.88.789 0 1.834.41 1.834 1.834zm7.779 2.74c0-.998-.559-1.529-1.362-2.03l-.893-.56c-.667-.41-.985-.62-.985-1.135 0-.59.562-.803 1.228-.803.969 0 1.393.544 1.635.544.18 0 .226-.105.226-.242v-.543c0-.182 0-.289-.151-.395-.302-.226-1.028-.437-1.771-.437-1.454 0-2.497.65-2.497 2.058 0 1.03.636 1.498 1.467 2.044l.939.605c.425.274.773.5.773 1.076 0 .622-.44.97-1.364.97-1.09 0-1.422-.546-1.74-.546-.18 0-.226.106-.226.243v.559c0 .181 0 .272.15.377.379.287 1.18.439 1.922.439 1.136 0 2.649-.439 2.649-2.224zm11.718-.696c0-1.212-.529-2.273-2.134-2.56-.074-.015-.106-.044-.106-.076 0-.03.032-.075.106-.09.23-.045 1.53-.393 1.53-2.119 0-1.334-.682-1.954-1.498-2.225-.652-.211-1.409-.228-2.273-.228h-1.997c-.122 0-.272.03-.272.273v9.551c0 .242.15.274.272.274h2.284c.985 0 1.728-.091 2.151-.213 1.574-.468 1.937-1.8 1.937-2.587zm-2.117-4.71c0 1.622-1.319 1.728-2.061 1.728h-.878c-.061 0-.152-.045-.152-.183v-2.998c0-.151.091-.182.152-.182h.802c.97 0 2.137.09 2.137 1.635zm.605 4.603c0 1.848-1.394 1.954-2.44 1.954h-1.104c-.061 0-.152-.045-.152-.182v-3.514c0-.15.091-.182.152-.182h1.241c1.046 0 2.303.167 2.303 1.924zm9.854 2.635v-7.04c0-.241-.152-.272-.272-.272h-.862c-.122 0-.272.03-.272.272v5.421c0 .439-.198.62-.591.771a3.13 3.13 0 0 1-1.075.198c-.637 0-1.12-.152-1.425-.485-.258-.318-.318-.741-.318-1.452v-4.453c0-.241-.15-.272-.273-.272h-.861c-.12 0-.272.03-.272.272v4.24c0 1.241.06 1.907.56 2.452.467.529 1.256.74 2.119.74.47 0 1.09-.107 1.529-.287.137-.06.379-.137.56-.137.151 0 .151.046.151.106 0 .105.032.198.213.198h.817c.12 0 .272-.032.272-.274v.002zm8.857-.002v-4.223c0-1.241-.078-1.909-.576-2.452-.469-.53-1.256-.756-2.119-.756-.47 0-1.075.106-1.515.288a1.59 1.59 0 0 1-.56.136c-.15 0-.15-.046-.15-.107 0-.106-.031-.196-.212-.196h-.817c-.122 0-.274.03-.274.272v7.038c0 .242.152.274.274.274h.861c.122 0 .273-.032.273-.274v-5.419c0-.439.196-.62.592-.771a3 3 0 0 1 1.058-.198c.637 0 1.122.165 1.424.5.257.317.334.742.334 1.452v4.436c0 .242.151.274.272.274h.862c.121 0 .273-.032.273-.274zm8.977.002v-10.05c0-.244-.151-.274-.274-.274h-.861c-.12 0-.272.03-.272.273v2.844c0 .12-.03.198-.136.198-.137 0-.652-.424-1.726-.424-2.182 0-3.634 1.406-3.634 4.011 0 2.362 1.27 3.814 3.497 3.814 1.152 0 1.62-.424 1.954-.424.15 0 .15.046.15.106 0 .105.031.198.212.198h.816c.123 0 .274-.032.274-.274v.002zm-1.407-1.652c0 .485-.212.667-.637.833-.272.109-.62.154-.924.154-1.772 0-2.452-1.091-2.452-2.787 0-2.651 1.589-2.924 2.452-2.924.303 0 .652.045.924.151.425.167.637.35.637.835v3.738zM272.764 39v-.364c0-1.21-.453-3.435-3.254-3.435-2.347 0-3.497 1.845-3.497 3.995 0 2.968 1.876 3.83 3.83 3.83.924 0 1.998-.166 2.376-.453.151-.106.167-.196.167-.394v-.514c0-.12-.044-.242-.211-.242-.105 0-.15.03-.243.076a4.296 4.296 0 0 1-1.937.47c-1.364 0-2.5-.728-2.5-2.486 0-.152.091-.21.228-.21h4.769c.121 0 .272-.032.272-.273zm-1.467-.938c0 .167-.045.197-.181.197h-3.439c-.151 0-.182-.06-.182-.151 0-.5.333-1.88 1.97-1.88.788 0 1.832.41 1.832 1.834zm7.78 2.74c0-.998-.56-1.529-1.362-2.03l-.893-.56c-.667-.41-.985-.62-.985-1.135 0-.59.56-.803 1.228-.803.97 0 1.392.544 1.635.544.18 0 .226-.105.226-.242v-.543c0-.182 0-.289-.152-.395-.302-.226-1.027-.437-1.77-.437-1.454 0-2.497.65-2.497 2.058 0 1.03.636 1.498 1.467 2.044l.94.605c.423.274.773.5.773 1.076 0 .622-.44.97-1.365.97-1.09 0-1.422-.546-1.74-.546-.181 0-.227.106-.227.243v.559c0 .181 0 .272.152.377.378.287 1.179.439 1.921.439 1.137 0 2.65-.439 2.65-2.224zM25.498 43.014H1.361c-.662 0-.662-1.086-.662-1.086v-.972H26.16v.972c0 1.086-.662 1.086-.662 1.086zM.7 38.899h25.46v-2.057H.7v2.057zm0-4.115h25.46v-2.058H.7v2.058zm25.46-4.124H.7V2.57c0-.926.58-1.042 1.041-1.042h22.224c.463 0 1.04.116 1.04 1.042v4.687c0 .927-.577 1.042-1.04 1.042H10.538c-.232 0-.58.115-.58.695v3.07c0 .521.348.695.58.695h10.474c.463 0 1.042.115 1.042 1.04v4.689c0 .925-.58 1.041-1.042 1.041H10.538c-.232 0-.58.116-.58.694v2.964c0 .52.348.695.58.695h14.583c.463 0 1.041.115 1.041 1.041l-.003 5.737z"/></svg>