<?xml version="1.0" encoding="utf-8"?>
<!-- Generator: Adobe Illustrator 21.0.0, SVG Export Plug-In . SVG Version: 6.00 Build 0)  -->
<svg version="1.1" id="Ebene_1" xmlns="http://www.w3.org/2000/svg" xmlns:xlink="http://www.w3.org/1999/xlink" x="0px" y="0px"
	 viewBox="0 0 694 117" style="enable-background:new 0 0 694 117;" xml:space="preserve">
<style type="text/css">
	.st0{fill:none;}
	.st1{fill:#8397B7;}
	.st2{fill:#073070;}
</style>
<g id="Platzierungshilfe">
	<rect class="st0" width="870" height="117"/>
</g>
<polygon class="st1" points="35.2,67.1 35.2,76.2 3.6,76.2 3.6,35.5 35.2,4 75.9,4 75.9,35.5 66.7,35.5 "/>
<polygon class="st2" points="82.5,4 114,35.5 114,82.8 82.5,114.4 35.2,114.4 3.6,82.8 50.9,82.8 82.5,51.3 "/>
<g>
	<path class="st2" d="M199.9,45.1V26.6h-19.5v18.5h-6.7V3.8h6.7v17.1h19.5V3.8h6.6v41.3H199.9z"/>
	<path class="st2" d="M230.8,45.1c0-2,0.1-4,0.3-5.6l-0.1-0.1c-1.5,3.6-5.3,6.3-10.1,6.3c-5.2,0-8.5-2.9-8.5-7.8c0-7,7-11,17.9-11
		v-2c0-3.8-1.6-5.7-6.4-5.7c-2.8,0-6.5,0.9-9,2.4l-0.6-5.6c3-1.2,6.8-2,10.7-2c9.3,0,11.9,4,11.9,10.3v12.4c0,2.6,0.1,5.7,0.2,8.3
		H230.8z M230.4,31.3c-9.5,0-11.6,2.9-11.6,5.5c0,2.3,1.6,3.7,4.2,3.7c4.5,0,7.5-4.3,7.5-8.6V31.3z"/>
	<path class="st2" d="M265,45.1V25.5c0-3.8-1-6-4.5-6c-4.6,0-7.9,4.8-7.9,10.9v14.7H246V14.7h6.2c0,1.6-0.1,4.2-0.4,5.9l0.1,0.1
		c1.8-3.9,5.4-6.6,10.6-6.6c6.9,0,9,4.3,9,9.7v21.3H265z"/>
	<path class="st2" d="M299.3,45.1c0-1.6,0.1-4,0.4-5.7h-0.1c-1.7,3.7-5.2,6.3-9.9,6.3c-7.5,0-11.2-5.5-11.2-14.3
		c0-10.5,6.1-17.2,15.9-17.2c1.5,0,2.9,0.1,4.6,0.2v-14h6.5v44.6H299.3z M299,20c-1.7-0.4-3.2-0.6-4.8-0.6c-5.2,0-8.7,3.2-8.7,11.4
		c0,6.1,1.9,9.5,6.1,9.5c4.8,0,7.5-5.7,7.5-10.9V20z"/>
	<path class="st2" d="M348.6,45.1h-7.2l-5.3-15.9c-0.7-2-1.2-4.1-1.8-6.4h-0.1c-0.6,2.7-1.3,5.1-2.1,7.6l-4.6,14.7h-6.9l-9.4-30.4
		h7.1l4,14.1c0.8,2.9,1.7,5.7,2.3,8.5h0.1c0.6-3,1.3-5.7,2.1-8.3l4.5-14.3h6.6l4.6,14.1c1.2,3.7,1.8,5.9,2.4,8.6h0.1
		c0.6-2.8,1.2-5.2,2.1-8.3l4.2-14.4h6.8L348.6,45.1z"/>
	<path class="st2" d="M387.9,30.3h-19.4c-0.2,7,2.9,10.2,9,10.2c3.1,0,6.4-0.7,8.9-2l0.6,5.2c-3.1,1.3-6.8,2-10.5,2
		c-9.5,0-14.7-4.9-14.7-15.6c0-9.2,5-16,13.9-16c8.7,0,12.4,5.9,12.4,13.1C388,28.1,388,29.1,387.9,30.3z M375.4,18.9
		c-3.7,0-6.2,2.7-6.8,6.8h12.9C381.6,21.5,379.2,18.9,375.4,18.9z"/>
	<path class="st2" d="M411,20.5c-6.1-1.1-9,3.1-9,12.2v12.4h-6.5V14.7h6.2c0,1.7-0.2,4.4-0.6,6.7h0.1c1.3-4.1,4.4-7.9,10.1-7.3
		L411,20.5z"/>
	<path class="st2" d="M433.8,45.1l-10.4-15.4v15.4h-6.5V0.5h6.5v27.3l9.8-13h8L430,28.6l12.1,16.5H433.8z"/>
	<path class="st2" d="M452.6,45.7c-2.3,0-4.5-0.2-6.4-0.6l0.2-5.6c1.9,0.5,4.3,1,6.6,1c3.5,0,6-1.5,6-4c0-6.1-13.3-2.4-13.3-13
		c0-5.3,4.3-9.4,12.5-9.4c1.8,0,3.8,0.2,5.7,0.5l-0.2,5.3c-1.8-0.6-4-0.9-5.9-0.9c-3.6,0-5.4,1.5-5.4,3.8c0,5.9,13.5,2.9,13.5,13
		C465.9,41.5,460.8,45.7,452.6,45.7z"/>
	<path class="st2" d="M490,45.1l-10.4-15.4v15.4h-6.5V0.5h6.5v27.3l9.8-13h8l-11.3,13.9l12.1,16.5H490z"/>
	<path class="st2" d="M519.7,45.1c0-2,0.1-4,0.3-5.6l-0.1-0.1c-1.5,3.6-5.3,6.3-10.1,6.3c-5.2,0-8.5-2.9-8.5-7.8c0-7,7-11,17.9-11
		v-2c0-3.8-1.6-5.7-6.4-5.7c-2.8,0-6.5,0.9-9,2.4l-0.6-5.6c3-1.2,6.8-2,10.7-2c9.3,0,11.9,4,11.9,10.3v12.4c0,2.6,0.1,5.7,0.2,8.3
		H519.7z M519.2,31.3c-9.5,0-11.6,2.9-11.6,5.5c0,2.3,1.6,3.7,4.2,3.7c4.5,0,7.5-4.3,7.5-8.6V31.3z"/>
	<path class="st2" d="M572.6,45.1V25.7c0-3.8-0.9-6.2-4.4-6.2c-3.9,0-7.8,4.3-7.8,11v14.6h-6.4V25.6c0-3.4-0.7-6.1-4.4-6.1
		c-4.2,0-7.8,4.6-7.8,11v14.6h-6.5V14.7h6.2c0,1.6-0.1,4.2-0.4,5.9l0.1,0.1c1.8-4,5.6-6.6,10.3-6.6c6,0,7.9,3.8,8.4,6.5
		c1.3-2.9,4.6-6.5,10.2-6.5c5.8,0,9,3.1,9,10v21H572.6z"/>
	<path class="st2" d="M625.8,45.1V25.7c0-3.8-0.9-6.2-4.4-6.2c-3.9,0-7.8,4.3-7.8,11v14.6h-6.4V25.6c0-3.4-0.7-6.1-4.4-6.1
		c-4.2,0-7.8,4.6-7.8,11v14.6h-6.5V14.7h6.2c0,1.6-0.1,4.2-0.4,5.9l0.1,0.1c1.8-4,5.6-6.6,10.3-6.6c6,0,7.9,3.8,8.4,6.5
		c1.3-2.9,4.6-6.5,10.1-6.5c5.8,0,9,3.1,9,10v21H625.8z"/>
	<path class="st2" d="M665.4,30.3h-19.4c-0.2,7,2.9,10.2,9,10.2c3.1,0,6.4-0.7,8.9-2l0.6,5.2c-3.1,1.3-6.8,2-10.5,2
		c-9.5,0-14.7-4.9-14.7-15.6c0-9.2,5-16,13.9-16c8.7,0,12.4,5.9,12.4,13.1C665.6,28.1,665.6,29.1,665.4,30.3z M653,18.9
		c-3.7,0-6.2,2.7-6.8,6.8h12.9C659.2,21.5,656.8,18.9,653,18.9z"/>
	<path class="st2" d="M688.6,20.5c-6.1-1.1-9,3.1-9,12.2v12.4H673V14.7h6.2c0,1.7-0.2,4.4-0.6,6.7h0.1c1.3-4.1,4.4-7.9,10.1-7.3
		L688.6,20.5z"/>
	<path class="st2" d="M183.8,114.7c-2.5,0-6.7-0.1-11.2-0.2V73.2c3.2-0.1,7.9-0.2,13-0.2c9,0,13.6,3.7,13.6,10c0,4.2-2.8,7.9-7,9.4
		v0.1c5.4,1,7.9,5.1,7.9,9.4C200,107.4,196.5,114.7,183.8,114.7z M184.4,78.4c-1.8,0-3.6,0.1-5.2,0.1v12.2c1.1,0.1,2.1,0.1,3.5,0.1
		c6.2,0,9.4-2.5,9.4-6.7C192.2,80.8,190.3,78.4,184.4,78.4z M182.9,95.7c-0.7,0-2.8,0-3.7,0.1v13.1c1,0.2,2.7,0.3,4.8,0.3
		c6.1,0,8.9-2.9,8.9-7.1C193,97.5,188.7,95.7,182.9,95.7z"/>
	<path class="st2" d="M231.3,99.7h-19.4c-0.2,7,2.9,10.2,9,10.2c3.1,0,6.4-0.7,8.9-2l0.6,5.2c-3.1,1.3-6.8,2-10.5,2
		c-9.5,0-14.7-4.9-14.7-15.6c0-9.2,5-16,13.9-16c8.7,0,12.4,5.9,12.4,13.1C231.5,97.5,231.4,98.6,231.3,99.7z M218.8,88.3
		c-3.7,0-6.2,2.7-6.8,6.8h12.9C225.1,91,222.7,88.3,218.8,88.3z"/>
	<path class="st2" d="M254.4,89.9c-6.1-1.1-9,3.1-9,12.2v12.4h-6.5V84.1h6.2c0,1.7-0.2,4.4-0.6,6.7h0.1c1.3-4.1,4.4-7.9,10.1-7.3
		L254.4,89.9z"/>
	<path class="st2" d="M260.6,114.5V69.9h6.5v44.6H260.6z"/>
	<path class="st2" d="M280,79.6c-2.3,0-4.2-1.8-4.2-4.1c0-2.3,1.9-4.1,4.2-4.1c2.3,0,4.2,1.8,4.2,4.1
		C284.1,77.8,282.2,79.6,280,79.6z M276.7,114.5V84.1h6.5v30.4H276.7z"/>
	<path class="st2" d="M311.7,114.5V94.9c0-3.8-1-6-4.5-6c-4.6,0-7.9,4.8-7.9,10.9v14.7h-6.5V84.1h6.2c0,1.6-0.1,4.2-0.4,5.9l0.1,0.1
		c1.8-3.9,5.4-6.6,10.6-6.6c6.9,0,9.1,4.3,9.1,9.7v21.3H311.7z"/>
</g>
</svg>
